{"title":"Alice In Chains - Dirt - CD remaster by MC Lurken 24-bit 96kHz f","uid":7486401,"size":1401776478,"categoryP":"audio","categoryS":"flac","magnet":"?xt=urn:btih:c9b0ad4020386ae5483c78008eda5b3e1b18f1c1&amp;dn=Alice+In+Chains+-+Dirt+-+CD+remaster+by+MC+Lurken+24-bit+96kHz+f&amp;tr=udp%3A%2F%2Ftracker.openbittorrent.com%3A80&amp;tr=udp%3A%2F%2Fopen.demonii.com%3A1337&amp;tr=udp%3A%2F%2Ftracker.coppersurfer.tk%3A6969&amp;tr=udp%3A%2F%2Fexodus.desync.com%3A6969","seeders":0,"leechers":1,"uploader":"beavis39","files":-1,"time":1343604932,"description":"Alice In Chains - Dirt - CD remaster by MC Lurken (a.k.a. Beavis39)\n\n\n\n!!!!!!!!!!!!!THIS IS NOT AN OFFICIAL REMASTER, THIS IS A FAN RELEASE!!!!!!!!!!!!!!\n!!!!!!!!!!!!!THIS IS NOT AN OFFICIAL REMASTER, THIS IS A FAN RELEASE!!!!!!!!!!!!!!\n!!!!!!!!!!!!!THIS IS NOT AN OFFICIAL REMASTER, THIS IS A FAN RELEASE!!!!!!!!!!!!!!\n\n\n\n1 - Them Bones\n2 - Dam That River\n3 - Rain When I Die\n4 - Down in a Hole\n5 - Sickman\n6 - Rooster\n7 - Junkhead\n8 - Dirt\n9 - God Smack\n10 - Iron Gland\n11 - Hate To Feel\n12 - Angry Chair\n13 - Would\n\n\n\nSetup:\n-HP G72-250US\n-Intel Core i3 M350 2.27GHz\n-8Gb PC3-10700 RAM\n-Win7 64-bit SP1\n-SB X-Fi Surround 5.1\n\nProcess:\n-Original 16/44.1 files joined in Wavelab 6\n-DC offset removed, this will yield a file with a bit depth of 18-24 bits\n-Resample to 384kHz in Wavelab w/crystal resampler ultra(slow) relax background priority\n-Create new 64-bit/384kHz master recording in Wavelab (0.08db gain)\n\nAs reported in Wavelab:\n-Original 16/44 - Apparent Bit Resolution = 16, Peak = -0.015db\n-DC Offset Removed - Apparent Bit Resolution = 20, Peak = -0.006db\n-Final Recording - Apparent Bit Resolution = 36, Peak = 1.496db\n\n-Resample 64-bit/384kHz to 64-bit/96kHz in Wavelab w/crystal resampler ultra(slow) relax background priority\n-Apply loudness maximizer (0.01db) and MBIT+ 24-bit Dither (Noise Shaping - Light, Dither Amount - High, Auto-blanking - on) in Wavelab w/Izotope Ozone 5 VST Plugin\n-Flac encode level 0 with Trader's Little Helper\n-Tag and pic with xrecode II\n\n\nfoobar2000 1.1.13 / Dynamic Range Meter 1.1.1\nlog date: 2012-07-29 16:04:49\n\n--------------------------------------------------------------------------------\nAnalyzed: ? / ?\n--------------------------------------------------------------------------------\n\nDR         Peak         RMS     Duration Track\n--------------------------------------------------------------------------------\nDR8       -0.07 dB    -8.85 dB      2:29 ?-01 - Them Bones\nDR8       -0.07 dB    -9.02 dB      3:09 ?-02 - Dam That River\nDR9       -0.07 dB   -10.57 dB      6:02 ?-03 - Rain When I Die\nDR8       -0.07 dB    -9.43 dB      5:38 ?-04 - Down in a Hole\nDR7       -0.07 dB    -9.01 dB      5:29 ?-05 - Sickman\nDR9       -0.07 dB   -11.76 dB      6:15 ?-06 - Rooster\nDR9       -0.07 dB   -10.52 dB      5:09 ?-07 - Junkhead\nDR8       -0.07 dB    -9.82 dB      5:17 ?-08 - Dirt\nDR8       -0.07 dB    -9.59 dB      3:51 ?-09 - God Smack\nDR8       -0.07 dB   -10.39 dB      0:44 ?-10 - Iron Gland\nDR7       -0.07 dB    -9.20 dB      5:16 ?-11 - Hate To Feel\nDR8       -0.07 dB    -9.69 dB      4:48 ?-12 - Angry Chair\nDR9       -0.07 dB   -10.04 dB      3:27 ?-13 - Would\n--------------------------------------------------------------------------------\n\nNumber of tracks:  13\nOfficial DR value: DR8\n\nSamplerate:        96000 Hz\nChannels:          2\nBits per sample:   24\nBitrate:           4608 kbps\nCodec:             PCM\n\n\n\nenjoy :)","torrent":{"xt":"urn:btih:c9b0ad4020386ae5483c78008eda5b3e1b18f1c1","amp;dn":"Alice+In+Chains+-+Dirt+-+CD+remaster+by+MC+Lurken+24-bit+96kHz+f","amp;tr":["udp%3A%2F%2Ftracker.openbittorrent.com%3A80","udp%3A%2F%2Fopen.demonii.com%3A1337","udp%3A%2F%2Ftracker.coppersurfer.tk%3A6969","udp%3A%2F%2Fexodus.desync.com%3A6969"],"infoHash":"c9b0ad4020386ae5483c78008eda5b3e1b18f1c1","infoHashBuffer":{"type":"Buffer","data":[201,176,173,64,32,56,106,229,72,60,120,0,142,218,91,62,27,24,241,193]},"announce":[],"urlList":[]}}